<?xml version="1.0" encoding="UTF-8"?>
<svg width="81px" height="17px" viewBox="0 0 81 17" version="1.1" xmlns="http://www.w3.org/2000/svg" xmlns:xlink="http://www.w3.org/1999/xlink">
    <title>clarets+1_white</title>
    <defs>
        <polygon id="path-1" points="0.0213333333 0.0615111111 14.6752 0.0615111111 14.6752 16.4007111 0.0213333333 16.4007111"></polygon>
        <polygon id="path-3" points="0.0981333333 0.295253111 26.3008 0.295253111 26.3008 15.9786667 0.0981333333 15.9786667"></polygon>
    </defs>
    <g id="----Symbols----" stroke="none" stroke-width="1" fill="none" fill-rule="evenodd">
        <g id="Header/Menu-Items" transform="translate(-32.000000, -31.000000)">
            <g id="clarets+1_white" transform="translate(32.000000, 31.000000)">
                <g id="Group-4">
                    <mask id="mask-2" fill="white">
                        <use xlink:href="#path-1"></use>
                    </mask>
                    <g id="Clip-2"></g>
                    <path d="M5.19786667,13.9541333 C5.75822222,13.9541333 6.21297778,13.8001778 6.5632,13.4922667 C6.91342222,13.1843556 7.09511111,12.7747556 7.10897778,12.2634667 L9.95484444,12.2634667 C9.94808889,13.0336 9.73795556,13.7386667 9.3248,14.3793778 C8.91164444,15.0200889 8.34666667,15.5171556 7.6288,15.8705778 C6.91128889,16.224 6.1184,16.4007111 5.25048889,16.4007111 C3.62631111,16.4007111 2.34524444,15.8844444 1.40728889,14.8519111 C0.468977778,13.8197333 0,12.3932444 0,10.5728 L0,10.3733333 C0,8.62328889 0.465777778,7.22666667 1.39662222,6.18346667 C2.32782222,5.14062222 3.60533333,4.61902222 5.22951111,4.61902222 C6.65066667,4.61902222 7.78986667,5.02293333 8.64746667,5.83182222 C9.50506667,6.64035556 9.94062222,7.71662222 9.95484444,9.06062222 L7.10897778,9.06062222 C7.09511111,8.46968889 6.91342222,7.98933333 6.5632,7.61991111 C6.21297778,7.25048889 5.75075556,7.0656 5.17688889,7.0656 C4.47004444,7.0656 3.93635556,7.32337778 3.57546667,7.83857778 C3.21493333,8.35377778 3.03466667,9.19004444 3.03466667,10.3466667 L3.03466667,10.6624 C3.03466667,11.8332444 3.21315556,12.6748444 3.57048889,13.1864889 C3.92746667,13.6984889 4.47004444,13.9541333 5.19786667,13.9541333" id="Fill-1" fill="#FFFFFE" mask="url(#mask-2)"></path>
                    <polygon id="Fill-3" fill="#FFFFFE" mask="url(#mask-2)" points="11.6302222 16.1909333 14.6752 16.1909333 14.6752 0.0615111111 11.6302222 0.0615111111"></polygon>
                </g>
                <path d="M21.0339556,14.08 C21.4819556,14.08 21.8951111,13.9804444 22.2730667,13.7806222 C22.6510222,13.5815111 22.9308444,13.3137778 23.1132444,12.9777778 L23.1132444,11.0243556 L21.9790222,11.0243556 C20.4597333,11.0243556 19.6512,11.5495111 19.5534222,12.5994667 L19.5427556,12.7779556 C19.5427556,13.1559111 19.6757333,13.4677333 19.9420444,13.7127111 C20.2076444,13.9576889 20.5720889,14.08 21.0339556,14.08 Z M23.5438222,16.1909333 C23.4033778,15.9178667 23.3020444,15.5786667 23.2391111,15.1722667 C22.5041778,15.9911111 21.5484444,16.4007111 20.3722667,16.4007111 C19.2593778,16.4007111 18.3367111,16.0789333 17.6053333,15.4350222 C16.8736,14.7907556 16.5080889,13.9786667 16.5080889,12.9984 C16.5080889,11.7944889 16.9543111,10.8707556 17.8471111,10.2261333 C18.7395556,9.58257778 20.0291556,9.25688889 21.7166222,9.24977778 L23.1132444,9.24977778 L23.1132444,8.59875556 C23.1132444,8.0736 22.9781333,7.65368889 22.7086222,7.33866667 C22.4391111,7.02364444 22.0138667,6.86613333 21.4328889,6.86613333 C20.9216,6.86613333 20.5212444,6.98844444 20.2307556,7.23342222 C19.9399111,7.47875556 19.7948444,7.81475556 19.7948444,8.24177778 L16.7601778,8.24177778 C16.7601778,7.58364444 16.9628444,6.97457778 17.3692444,6.41457778 C17.7749333,5.85457778 18.3491556,5.41511111 19.0912,5.09653333 C19.8332444,4.77795556 20.6663111,4.61902222 21.5904,4.61902222 C22.9902222,4.61902222 24.1016889,4.97066667 24.9244444,5.67431111 C25.7468444,6.37795556 26.1585778,7.36675556 26.1585778,8.64071111 L26.1585778,13.5655111 C26.1653333,14.6439111 26.3157333,15.4595556 26.6101333,16.0124444 L26.6101333,16.1909333 L23.5438222,16.1909333 L23.5438222,16.1909333 Z" id="Fill-5" fill="#FFFFFE"></path>
                <path d="M34.6588444,7.67466667 C34.2456889,7.61884444 33.8816,7.59075556 33.5665778,7.59075556 C32.4184889,7.59075556 31.6661333,7.97902222 31.3091556,8.75626667 L31.3091556,16.1909333 L28.2741333,16.1909333 L28.2741333,4.8288 L31.1409778,4.8288 L31.2252444,6.18346667 C31.8339556,5.14062222 32.6776889,4.61902222 33.7557333,4.61902222 C34.0917333,4.61902222 34.4067556,4.66453333 34.7008,4.75555556 L34.6588444,7.67466667" id="Fill-6" fill="#FFFFFE"></path>
                <path d="M40.7864889,7.0656 C40.1841778,7.0656 39.696,7.26933333 39.3216,7.67751111 C38.9468444,8.08533333 38.7072,8.6688 38.6023111,9.42826667 L42.8238222,9.42826667 L42.8238222,9.18542222 C42.8096,8.51057778 42.6275556,7.98862222 42.2773333,7.6192 C41.9274667,7.25013333 41.4304,7.0656 40.7864889,7.0656 Z M41.1328,16.4007111 C39.4666667,16.4007111 38.1102222,15.8897778 37.0638222,14.8679111 C36.0170667,13.8460444 35.4940444,12.4839111 35.4940444,10.7829333 L35.4940444,10.4888889 C35.4940444,9.34791111 35.7144889,8.32746667 36.1553778,7.42791111 C36.5966222,6.52835556 37.2213333,5.83537778 38.0298667,5.34862222 C38.8384,4.86222222 39.7607111,4.61902222 40.7968,4.61902222 C42.3509333,4.61902222 43.5744,5.10897778 44.4672,6.08924444 C45.3592889,7.06915556 45.8058667,8.45866667 45.8058667,10.2577778 L45.8058667,11.4968889 L38.5706667,11.4968889 C38.6684444,12.2389333 38.9646222,12.8341333 39.4581333,13.2821333 C39.9516444,13.7304889 40.5763556,13.9541333 41.3322667,13.9541333 C42.5013333,13.9541333 43.4151111,13.5306667 44.0732444,12.6833778 L45.5644444,14.3534222 C45.1089778,14.9973333 44.4931556,15.4997333 43.7159111,15.8599111 C42.9390222,16.2208 42.0778667,16.4007111 41.1328,16.4007111 L41.1328,16.4007111 Z" id="Fill-7" fill="#FFFFFE"></path>
                <path d="M50.9457778,2.03555556 L50.9457778,4.8288 L52.8885333,4.8288 L52.8885333,7.05493333 L50.9457778,7.05493333 L50.9457778,12.7256889 C50.9457778,13.1456 51.0264889,13.4467556 51.1875556,13.6288 C51.3486222,13.8104889 51.6561778,13.9015111 52.1116444,13.9015111 C52.4476444,13.9015111 52.7452444,13.8773333 53.0040889,13.8282667 L53.0040889,16.128 C52.4092444,16.3100444 51.7966222,16.4007111 51.1662222,16.4007111 C49.0385778,16.4007111 47.9530667,15.3265778 47.9111111,13.1768889 L47.9111111,7.05493333 L46.2520889,7.05493333 L46.2520889,4.8288 L47.9111111,4.8288 L47.9111111,2.03555556 L50.9457778,2.03555556" id="Fill-8" fill="#FFFFFE"></path>
                <g id="Group-12" transform="translate(53.688889, 0.711111)">
                    <mask id="mask-4" fill="white">
                        <use xlink:href="#path-3"></use>
                    </mask>
                    <g id="Clip-10"></g>
                    <path d="M6.8288,12.3402667 C6.8288,11.9694222 6.64533333,11.6768 6.27768889,11.4631111 C5.91004444,11.2497778 5.32053333,11.0588444 4.50844444,10.8906667 C1.80586667,10.3239111 0.454755556,9.17582222 0.454755556,7.4464 C0.454755556,6.4384 0.873244444,5.5968 1.70986667,4.92088889 C2.54613333,4.24568889 3.64017778,3.90791111 4.99128889,3.90791111 C6.43342222,3.90791111 7.58648889,4.24746667 8.45155556,4.92622222 C9.31591111,5.60533333 9.74826667,6.48746667 9.74826667,7.57262222 L6.7136,7.57262222 C6.7136,7.13848889 6.57315556,6.77973333 6.29333333,6.49635556 C6.01351111,6.21262222 5.57582222,6.07111111 4.98097778,6.07111111 C4.46968889,6.07111111 4.07395556,6.18631111 3.79413333,6.41742222 C3.51431111,6.64853333 3.37386667,6.94257778 3.37386667,7.29955556 C3.37386667,7.63555556 3.53351111,7.90684444 3.85208889,8.11342222 C4.17066667,8.32 4.70755556,8.49848889 5.46382222,8.64888889 C6.21973333,8.79964444 6.85688889,8.96924444 7.37493333,9.15804444 C8.97813333,9.74648889 9.77955556,10.7648 9.77955556,12.2140444 C9.77955556,13.2501333 9.33511111,14.0885333 8.44622222,14.7288889 C7.55697778,15.3696 6.40924444,15.6896 5.00195556,15.6896 C4.04977778,15.6896 3.20462222,15.52 2.46613333,15.1804444 C1.72728889,14.8412444 1.14808889,14.3754667 0.727822222,13.7838222 C0.307911111,13.1925333 0.0981333333,12.5536 0.0981333333,11.8673778 L2.97493333,11.8673778 C3.00302222,12.4064 3.20248889,12.8195556 3.57368889,13.1064889 C3.94488889,13.3934222 4.4416,13.5370667 5.06488889,13.5370667 C5.64586667,13.5370667 6.08497778,13.4268444 6.38257778,13.2064 C6.68017778,12.9859556 6.8288,12.6968889 6.8288,12.3402667" id="Fill-9" fill="#FFFFFE" mask="url(#mask-4)"></path>
                    <path d="M20.6826667,8.96995556 L18.2296889,8.96995556 L18.2296889,11.7422222 L16.3612444,11.7422222 L16.3612444,8.96995556 L13.9015111,8.96995556 L13.9015111,7.1968 L16.3612444,7.1968 L16.3612444,4.54008889 L18.2296889,4.54008889 L18.2296889,7.1968 L20.6826667,7.1968 L20.6826667,8.96995556 Z M25.6021333,7.18542222 L13.9224889,0.520888889 C12.9912889,-0.0103111111 12.2360889,0.428444444 12.2360889,1.5008 L12.2360889,14.7946667 C12.2360889,15.8670222 12.9912889,16.3057778 13.9224889,15.7742222 L25.6021333,9.11004444 C26.5336889,8.57848889 26.5336889,7.71662222 25.6021333,7.18542222 L25.6021333,7.18542222 Z" id="Fill-11" fill="#FFFFFE" mask="url(#mask-4)"></path>
                </g>
            </g>
        </g>
    </g>
</svg>